<?xml version="1.0" encoding="UTF-8" standalone="no"?>
<!DOCTYPE svg PUBLIC "-//W3C//DTD SVG 1.1//EN"
 "http://www.w3.org/Graphics/SVG/1.1/DTD/svg11.dtd">
<!-- Generated by graphviz version 2.38.0 (20140413.2041)
 -->
<!-- Title: %3 Pages: 1 -->
<svg width="278pt" height="260pt"
 viewBox="0.00 0.00 278.00 260.00" xmlns="http://www.w3.org/2000/svg" xmlns:xlink="http://www.w3.org/1999/xlink">
<g id="graph0" class="graph" transform="scale(1 1) rotate(0) translate(4 256)">
<title>%3</title>
<polygon fill="white" stroke="none" points="-4,4 -4,-256 274,-256 274,4 -4,4"/>
<!-- A -->
<g id="node1" class="node"><title>A</title>
<ellipse fill="none" stroke="black" cx="27" cy="-234" rx="27" ry="18"/>
<text text-anchor="middle" x="27" y="-230.3" font-family="Times New Roman,serif" font-size="14.00">X1</text>
</g>
<!-- E -->
<g id="node5" class="node"><title>E</title>
<ellipse fill="none" stroke="black" cx="27" cy="-162" rx="27" ry="18"/>
<text text-anchor="middle" x="27" y="-158.3" font-family="Times New Roman,serif" font-size="14.00">Z1</text>
</g>
<!-- A&#45;&gt;E -->
<g id="edge1" class="edge"><title>A&#45;&gt;E</title>
<path fill="none" stroke="black" d="M27,-215.697C27,-207.983 27,-198.712 27,-190.112"/>
<polygon fill="black" stroke="black" points="30.5001,-190.104 27,-180.104 23.5001,-190.104 30.5001,-190.104"/>
</g>
<!-- B -->
<g id="node2" class="node"><title>B</title>
<ellipse fill="none" stroke="black" cx="99" cy="-234" rx="27" ry="18"/>
<text text-anchor="middle" x="99" y="-230.3" font-family="Times New Roman,serif" font-size="14.00">X2</text>
</g>
<!-- F -->
<g id="node6" class="node"><title>F</title>
<ellipse fill="none" stroke="black" cx="99" cy="-162" rx="27" ry="18"/>
<text text-anchor="middle" x="99" y="-158.3" font-family="Times New Roman,serif" font-size="14.00">Z2</text>
</g>
<!-- B&#45;&gt;F -->
<g id="edge2" class="edge"><title>B&#45;&gt;F</title>
<path fill="none" stroke="black" d="M99,-215.697C99,-207.983 99,-198.712 99,-190.112"/>
<polygon fill="black" stroke="black" points="102.5,-190.104 99,-180.104 95.5001,-190.104 102.5,-190.104"/>
</g>
<!-- C -->
<g id="node3" class="node"><title>C</title>
<ellipse fill="none" stroke="black" cx="171" cy="-234" rx="27" ry="18"/>
<text text-anchor="middle" x="171" y="-230.3" font-family="Times New Roman,serif" font-size="14.00">X...</text>
</g>
<!-- G -->
<g id="node7" class="node"><title>G</title>
<ellipse fill="none" stroke="black" cx="171" cy="-162" rx="27" ry="18"/>
<text text-anchor="middle" x="171" y="-158.3" font-family="Times New Roman,serif" font-size="14.00">Z...</text>
</g>
<!-- C&#45;&gt;G -->
<g id="edge3" class="edge"><title>C&#45;&gt;G</title>
<path fill="none" stroke="black" d="M171,-215.697C171,-207.983 171,-198.712 171,-190.112"/>
<polygon fill="black" stroke="black" points="174.5,-190.104 171,-180.104 167.5,-190.104 174.5,-190.104"/>
</g>
<!-- D -->
<g id="node4" class="node"><title>D</title>
<ellipse fill="none" stroke="black" cx="243" cy="-234" rx="27" ry="18"/>
<text text-anchor="middle" x="243" y="-230.3" font-family="Times New Roman,serif" font-size="14.00">XN</text>
</g>
<!-- H -->
<g id="node8" class="node"><title>H</title>
<ellipse fill="none" stroke="black" cx="243" cy="-162" rx="27" ry="18"/>
<text text-anchor="middle" x="243" y="-158.3" font-family="Times New Roman,serif" font-size="14.00">ZN</text>
</g>
<!-- D&#45;&gt;H -->
<g id="edge4" class="edge"><title>D&#45;&gt;H</title>
<path fill="none" stroke="black" d="M243,-215.697C243,-207.983 243,-198.712 243,-190.112"/>
<polygon fill="black" stroke="black" points="246.5,-190.104 243,-180.104 239.5,-190.104 246.5,-190.104"/>
</g>
<!-- M -->
<g id="node9" class="node"><title>M</title>
<ellipse fill="none" stroke="black" cx="135" cy="-90" rx="27" ry="18"/>
<text text-anchor="middle" x="135" y="-86.3" font-family="Times New Roman,serif" font-size="14.00">Z</text>
</g>
<!-- E&#45;&gt;M -->
<g id="edge5" class="edge"><title>E&#45;&gt;M</title>
<path fill="none" stroke="black" d="M45.8122,-148.807C63.0021,-137.665 88.6184,-121.062 107.993,-108.504"/>
<polygon fill="black" stroke="black" points="109.916,-111.429 116.403,-103.053 106.108,-105.555 109.916,-111.429"/>
</g>
<!-- F&#45;&gt;M -->
<g id="edge6" class="edge"><title>F&#45;&gt;M</title>
<path fill="none" stroke="black" d="M107.35,-144.765C111.712,-136.283 117.147,-125.714 122.041,-116.197"/>
<polygon fill="black" stroke="black" points="125.235,-117.641 126.696,-107.147 119.01,-114.439 125.235,-117.641"/>
</g>
<!-- G&#45;&gt;M -->
<g id="edge7" class="edge"><title>G&#45;&gt;M</title>
<path fill="none" stroke="black" d="M162.65,-144.765C158.288,-136.283 152.853,-125.714 147.959,-116.197"/>
<polygon fill="black" stroke="black" points="150.99,-114.439 143.304,-107.147 144.765,-117.641 150.99,-114.439"/>
</g>
<!-- H&#45;&gt;M -->
<g id="edge8" class="edge"><title>H&#45;&gt;M</title>
<path fill="none" stroke="black" d="M224.188,-148.807C206.998,-137.665 181.382,-121.062 162.007,-108.504"/>
<polygon fill="black" stroke="black" points="163.892,-105.555 153.597,-103.053 160.084,-111.429 163.892,-105.555"/>
</g>
<!-- J -->
<g id="node10" class="node"><title>J</title>
<ellipse fill="none" stroke="black" cx="135" cy="-18" rx="27" ry="18"/>
<text text-anchor="middle" x="135" y="-14.3" font-family="Times New Roman,serif" font-size="14.00">Y</text>
</g>
<!-- M&#45;&gt;J -->
<g id="edge9" class="edge"><title>M&#45;&gt;J</title>
<path fill="none" stroke="black" d="M135,-71.6966C135,-63.9827 135,-54.7125 135,-46.1124"/>
<polygon fill="black" stroke="black" points="138.5,-46.1043 135,-36.1043 131.5,-46.1044 138.5,-46.1043"/>
</g>
</g>
</svg>
