<?xml version="1.0" encoding="UTF-8" standalone="no"?>
<!DOCTYPE svg PUBLIC "-//W3C//DTD SVG 1.1//EN"
 "http://www.w3.org/Graphics/SVG/1.1/DTD/svg11.dtd">
<!-- Generated by graphviz version 2.38.0 (20140413.2041)
 -->
<!-- Title: %3 Pages: 1 -->
<svg width="548pt" height="260pt"
 viewBox="0.00 0.00 548.34 260.00" xmlns="http://www.w3.org/2000/svg" xmlns:xlink="http://www.w3.org/1999/xlink">
<g id="graph0" class="graph" transform="scale(1 1) rotate(0) translate(4 256)">
<title>%3</title>
<polygon fill="white" stroke="none" points="-4,4 -4,-256 544.335,-256 544.335,4 -4,4"/>
<!-- A -->
<g id="node1" class="node"><title>A</title>
<ellipse fill="none" stroke="black" cx="354.494" cy="-234" rx="60.3893" ry="18"/>
<text text-anchor="middle" x="354.494" y="-230.3" font-family="Times New Roman,serif" font-size="14.00">unhealthy diet</text>
</g>
<!-- D -->
<g id="node4" class="node"><title>D</title>
<ellipse fill="none" stroke="black" cx="342.494" cy="-162" rx="28.6953" ry="18"/>
<text text-anchor="middle" x="342.494" y="-158.3" font-family="Times New Roman,serif" font-size="14.00">ARF</text>
</g>
<!-- A&#45;&gt;D -->
<g id="edge1" class="edge"><title>A&#45;&gt;D</title>
<path fill="none" stroke="black" d="M351.527,-215.697C350.205,-207.983 348.616,-198.712 347.142,-190.112"/>
<polygon fill="black" stroke="black" points="350.565,-189.369 345.426,-180.104 343.666,-190.552 350.565,-189.369"/>
</g>
<!-- B -->
<g id="node2" class="node"><title>B</title>
<ellipse fill="none" stroke="black" cx="231.494" cy="-234" rx="44.6926" ry="18"/>
<text text-anchor="middle" x="231.494" y="-230.3" font-family="Times New Roman,serif" font-size="14.00">pyometra</text>
</g>
<!-- C -->
<g id="node3" class="node"><title>C</title>
<ellipse fill="none" stroke="black" cx="243.494" cy="-162" rx="51.9908" ry="18"/>
<text text-anchor="middle" x="243.494" y="-158.3" font-family="Times New Roman,serif" font-size="14.00">pancreatitis</text>
</g>
<!-- B&#45;&gt;C -->
<g id="edge2" class="edge"><title>B&#45;&gt;C</title>
<path fill="none" stroke="black" d="M234.46,-215.697C235.782,-207.983 237.372,-198.712 238.846,-190.112"/>
<polygon fill="black" stroke="black" points="242.321,-190.552 240.561,-180.104 235.422,-189.369 242.321,-190.552"/>
</g>
<!-- B&#45;&gt;D -->
<g id="edge3" class="edge"><title>B&#45;&gt;D</title>
<path fill="none" stroke="black" d="M254.493,-218.496C271.847,-207.552 295.746,-192.481 314.259,-180.805"/>
<polygon fill="black" stroke="black" points="316.271,-183.675 322.863,-175.38 312.537,-177.754 316.271,-183.675"/>
</g>
<!-- E -->
<g id="node5" class="node"><title>E</title>
<ellipse fill="none" stroke="black" cx="124.494" cy="-162" rx="48.9926" ry="18"/>
<text text-anchor="middle" x="124.494" y="-158.3" font-family="Times New Roman,serif" font-size="14.00">septicemia</text>
</g>
<!-- B&#45;&gt;E -->
<g id="edge4" class="edge"><title>B&#45;&gt;E</title>
<path fill="none" stroke="black" d="M209.063,-218.326C193.721,-208.289 173.162,-194.839 156.156,-183.714"/>
<polygon fill="black" stroke="black" points="157.918,-180.684 147.634,-178.138 154.086,-186.542 157.918,-180.684"/>
</g>
<!-- F -->
<g id="node6" class="node"><title>F</title>
<ellipse fill="none" stroke="black" cx="293.494" cy="-90" rx="35.194" ry="18"/>
<text text-anchor="middle" x="293.494" y="-86.3" font-family="Times New Roman,serif" font-size="14.00">emesis</text>
</g>
<!-- C&#45;&gt;F -->
<g id="edge5" class="edge"><title>C&#45;&gt;F</title>
<path fill="none" stroke="black" d="M255.343,-144.411C261.445,-135.868 269.009,-125.278 275.788,-115.787"/>
<polygon fill="black" stroke="black" points="278.765,-117.642 281.729,-107.47 273.069,-113.573 278.765,-117.642"/>
</g>
<!-- D&#45;&gt;F -->
<g id="edge6" class="edge"><title>D&#45;&gt;F</title>
<path fill="none" stroke="black" d="M331.375,-145.116C325.26,-136.38 317.541,-125.353 310.668,-115.535"/>
<polygon fill="black" stroke="black" points="313.511,-113.492 304.909,-107.307 307.776,-117.506 313.511,-113.492"/>
</g>
<!-- G -->
<g id="node7" class="node"><title>G</title>
<ellipse fill="none" stroke="black" cx="200.494" cy="-90" rx="39.7935" ry="18"/>
<text text-anchor="middle" x="200.494" y="-86.3" font-family="Times New Roman,serif" font-size="14.00">diarrhea</text>
</g>
<!-- D&#45;&gt;G -->
<g id="edge7" class="edge"><title>D&#45;&gt;G</title>
<path fill="none" stroke="black" d="M320.617,-150.216C297.93,-139.032 262.118,-121.378 235.492,-108.253"/>
<polygon fill="black" stroke="black" points="237.01,-105.099 226.493,-103.817 233.915,-111.378 237.01,-105.099"/>
</g>
<!-- H -->
<g id="node8" class="node"><title>H</title>
<ellipse fill="none" stroke="black" cx="443.494" cy="-90" rx="96.6831" ry="18"/>
<text text-anchor="middle" x="443.494" y="-86.3" font-family="Times New Roman,serif" font-size="14.00">cardiorespiratory failure</text>
</g>
<!-- D&#45;&gt;H -->
<g id="edge8" class="edge"><title>D&#45;&gt;H</title>
<path fill="none" stroke="black" d="M361.019,-148.161C375.082,-138.414 394.767,-124.771 411.378,-113.259"/>
<polygon fill="black" stroke="black" points="413.513,-116.037 419.738,-107.464 409.525,-110.284 413.513,-116.037"/>
</g>
<!-- E&#45;&gt;G -->
<g id="edge9" class="edge"><title>E&#45;&gt;G</title>
<path fill="none" stroke="black" d="M141.739,-145.116C151.987,-135.677 165.141,-123.562 176.403,-113.189"/>
<polygon fill="black" stroke="black" points="178.854,-115.689 183.839,-106.34 174.112,-110.541 178.854,-115.689"/>
</g>
<!-- I -->
<g id="node9" class="node"><title>I</title>
<ellipse fill="none" stroke="black" cx="71.4937" cy="-90" rx="71.4873" ry="18"/>
<text text-anchor="middle" x="71.4937" y="-86.3" font-family="Times New Roman,serif" font-size="14.00">immunity decline</text>
</g>
<!-- E&#45;&gt;I -->
<g id="edge10" class="edge"><title>E&#45;&gt;I</title>
<path fill="none" stroke="black" d="M111.933,-144.411C105.559,-135.992 97.6794,-125.585 90.5742,-116.201"/>
<polygon fill="black" stroke="black" points="93.1588,-113.816 84.3319,-107.956 87.5779,-118.042 93.1588,-113.816"/>
</g>
<!-- J -->
<g id="node10" class="node"><title>J</title>
<ellipse fill="none" stroke="black" cx="257.494" cy="-18" rx="30.5947" ry="18"/>
<text text-anchor="middle" x="257.494" y="-14.3" font-family="Times New Roman,serif" font-size="14.00">death</text>
</g>
<!-- H&#45;&gt;J -->
<g id="edge11" class="edge"><title>H&#45;&gt;J</title>
<path fill="none" stroke="black" d="M402.675,-73.6382C369.578,-61.1821 323.443,-43.8195 292.127,-32.0341"/>
<polygon fill="black" stroke="black" points="293.108,-28.6636 282.516,-28.4169 290.642,-35.215 293.108,-28.6636"/>
</g>
<!-- I&#45;&gt;J -->
<g id="edge12" class="edge"><title>I&#45;&gt;J</title>
<path fill="none" stroke="black" d="M109.582,-74.6655C142.909,-62.1234 190.892,-44.0653 223.08,-31.9516"/>
<polygon fill="black" stroke="black" points="224.402,-35.1937 232.528,-28.3957 221.936,-28.6423 224.402,-35.1937"/>
</g>
</g>
</svg>
