<?xml version="1.0" encoding="UTF-8" standalone="no"?>
<!DOCTYPE svg PUBLIC "-//W3C//DTD SVG 1.1//EN"
 "http://www.w3.org/Graphics/SVG/1.1/DTD/svg11.dtd">
<!-- Generated by graphviz version 2.38.0 (20140413.2041)
 -->
<!-- Title: %3 Pages: 1 -->
<svg width="559pt" height="260pt"
 viewBox="0.00 0.00 558.64 260.00" xmlns="http://www.w3.org/2000/svg" xmlns:xlink="http://www.w3.org/1999/xlink">
<g id="graph0" class="graph" transform="scale(1 1) rotate(0) translate(4 256)">
<title>%3</title>
<polygon fill="white" stroke="none" points="-4,4 -4,-256 554.642,-256 554.642,4 -4,4"/>
<!-- A -->
<g id="node1" class="node"><title>A</title>
<ellipse fill="none" stroke="black" cx="400.995" cy="-234" rx="60.3893" ry="18"/>
<text text-anchor="middle" x="400.995" y="-230.3" font-family="Times New Roman,serif" font-size="14.00">unhealthy diet</text>
</g>
<!-- D -->
<g id="node4" class="node"><title>D</title>
<ellipse fill="none" stroke="black" cx="195.995" cy="-162" rx="28.6953" ry="18"/>
<text text-anchor="middle" x="195.995" y="-158.3" font-family="Times New Roman,serif" font-size="14.00">ARF</text>
</g>
<!-- A&#45;&gt;D -->
<g id="edge1" class="edge"><title>A&#45;&gt;D</title>
<path fill="none" stroke="black" d="M362.917,-219.998C324.921,-207.023 267.062,-187.267 230.41,-174.751"/>
<polygon fill="black" stroke="black" points="231.263,-171.344 220.668,-171.425 229.001,-177.969 231.263,-171.344"/>
</g>
<!-- G -->
<g id="node7" class="node"><title>G</title>
<ellipse fill="none" stroke="black" cx="510.995" cy="-90" rx="39.7935" ry="18"/>
<text text-anchor="middle" x="510.995" y="-86.3" font-family="Times New Roman,serif" font-size="14.00">diarrhea</text>
</g>
<!-- A&#45;&gt;G -->
<g id="edge2" class="edge"><title>A&#45;&gt;G</title>
<path fill="none" stroke="black" d="M414.046,-216.153C433.418,-191.146 469.884,-144.071 492.152,-115.325"/>
<polygon fill="black" stroke="black" points="494.944,-117.436 498.301,-107.387 489.411,-113.149 494.944,-117.436"/>
</g>
<!-- B -->
<g id="node2" class="node"><title>B</title>
<ellipse fill="none" stroke="black" cx="164.995" cy="-234" rx="44.6926" ry="18"/>
<text text-anchor="middle" x="164.995" y="-230.3" font-family="Times New Roman,serif" font-size="14.00">pyometra</text>
</g>
<!-- C -->
<g id="node3" class="node"><title>C</title>
<ellipse fill="none" stroke="black" cx="51.9954" cy="-162" rx="51.9908" ry="18"/>
<text text-anchor="middle" x="51.9954" y="-158.3" font-family="Times New Roman,serif" font-size="14.00">pancreatitis</text>
</g>
<!-- B&#45;&gt;C -->
<g id="edge4" class="edge"><title>B&#45;&gt;C</title>
<path fill="none" stroke="black" d="M141.582,-218.496C125.138,-208.309 102.92,-194.546 84.7249,-183.275"/>
<polygon fill="black" stroke="black" points="86.503,-180.259 76.1587,-177.968 82.8166,-186.21 86.503,-180.259"/>
</g>
<!-- B&#45;&gt;D -->
<g id="edge5" class="edge"><title>B&#45;&gt;D</title>
<path fill="none" stroke="black" d="M172.5,-216.055C176.079,-207.973 180.442,-198.121 184.432,-189.112"/>
<polygon fill="black" stroke="black" points="187.711,-190.35 188.56,-179.789 181.311,-187.515 187.711,-190.35"/>
</g>
<!-- E -->
<g id="node5" class="node"><title>E</title>
<ellipse fill="none" stroke="black" cx="381.995" cy="-162" rx="48.9926" ry="18"/>
<text text-anchor="middle" x="381.995" y="-158.3" font-family="Times New Roman,serif" font-size="14.00">septicemia</text>
</g>
<!-- B&#45;&gt;E -->
<g id="edge6" class="edge"><title>B&#45;&gt;E</title>
<path fill="none" stroke="black" d="M198.902,-222.063C236.013,-210.091 295.69,-190.841 336.768,-177.59"/>
<polygon fill="black" stroke="black" points="338.084,-180.843 346.527,-174.442 335.935,-174.181 338.084,-180.843"/>
</g>
<!-- F -->
<g id="node6" class="node"><title>F</title>
<ellipse fill="none" stroke="black" cx="45.9954" cy="-90" rx="35.194" ry="18"/>
<text text-anchor="middle" x="45.9954" y="-86.3" font-family="Times New Roman,serif" font-size="14.00">emesis</text>
</g>
<!-- B&#45;&gt;F -->
<g id="edge3" class="edge"><title>B&#45;&gt;F</title>
<path fill="none" stroke="black" d="M157.456,-216.05C148.556,-197.192 132.475,-166.428 112.995,-144 102.091,-131.445 87.8855,-119.72 75.3627,-110.508"/>
<polygon fill="black" stroke="black" points="77.195,-107.515 67.0231,-104.552 73.1266,-113.212 77.195,-107.515"/>
</g>
<!-- C&#45;&gt;F -->
<g id="edge7" class="edge"><title>C&#45;&gt;F</title>
<path fill="none" stroke="black" d="M50.5122,-143.697C49.851,-135.983 49.0565,-126.712 48.3193,-118.112"/>
<polygon fill="black" stroke="black" points="51.8028,-117.769 47.4615,-108.104 44.8284,-118.367 51.8028,-117.769"/>
</g>
<!-- D&#45;&gt;F -->
<g id="edge8" class="edge"><title>D&#45;&gt;F</title>
<path fill="none" stroke="black" d="M173.539,-150.52C148.867,-139.007 108.951,-120.379 80.3426,-107.029"/>
<polygon fill="black" stroke="black" points="81.6545,-103.779 71.1126,-102.721 78.6943,-110.122 81.6545,-103.779"/>
</g>
<!-- D&#45;&gt;G -->
<g id="edge9" class="edge"><title>D&#45;&gt;G</title>
<path fill="none" stroke="black" d="M223.471,-156.805C272.055,-149.103 376.112,-131.336 461.995,-108 465.167,-107.138 468.43,-106.177 471.695,-105.161"/>
<polygon fill="black" stroke="black" points="472.976,-108.425 481.4,-101.999 470.808,-101.769 472.976,-108.425"/>
</g>
<!-- H -->
<g id="node8" class="node"><title>H</title>
<ellipse fill="none" stroke="black" cx="195.995" cy="-90" rx="96.6831" ry="18"/>
<text text-anchor="middle" x="195.995" y="-86.3" font-family="Times New Roman,serif" font-size="14.00">cardiorespiratory failure</text>
</g>
<!-- D&#45;&gt;H -->
<g id="edge10" class="edge"><title>D&#45;&gt;H</title>
<path fill="none" stroke="black" d="M195.995,-143.697C195.995,-135.983 195.995,-126.712 195.995,-118.112"/>
<polygon fill="black" stroke="black" points="199.495,-118.104 195.995,-108.104 192.495,-118.104 199.495,-118.104"/>
</g>
<!-- E&#45;&gt;G -->
<g id="edge11" class="edge"><title>E&#45;&gt;G</title>
<path fill="none" stroke="black" d="M408.412,-146.666C428.406,-135.816 456.007,-120.838 477.544,-109.152"/>
<polygon fill="black" stroke="black" points="479.242,-112.212 486.362,-104.367 475.904,-106.06 479.242,-112.212"/>
</g>
<!-- I -->
<g id="node9" class="node"><title>I</title>
<ellipse fill="none" stroke="black" cx="381.995" cy="-90" rx="71.4873" ry="18"/>
<text text-anchor="middle" x="381.995" y="-86.3" font-family="Times New Roman,serif" font-size="14.00">immunity decline</text>
</g>
<!-- E&#45;&gt;I -->
<g id="edge12" class="edge"><title>E&#45;&gt;I</title>
<path fill="none" stroke="black" d="M381.995,-143.697C381.995,-135.983 381.995,-126.712 381.995,-118.112"/>
<polygon fill="black" stroke="black" points="385.495,-118.104 381.995,-108.104 378.495,-118.104 385.495,-118.104"/>
</g>
<!-- J -->
<g id="node10" class="node"><title>J</title>
<ellipse fill="none" stroke="black" cx="288.995" cy="-18" rx="30.5947" ry="18"/>
<text text-anchor="middle" x="288.995" y="-14.3" font-family="Times New Roman,serif" font-size="14.00">death</text>
</g>
<!-- H&#45;&gt;J -->
<g id="edge13" class="edge"><title>H&#45;&gt;J</title>
<path fill="none" stroke="black" d="M218.035,-72.411C231.38,-62.3668 248.481,-49.4945 262.552,-38.9037"/>
<polygon fill="black" stroke="black" points="264.976,-41.46 270.861,-32.6499 260.766,-35.8673 264.976,-41.46"/>
</g>
<!-- I&#45;&gt;J -->
<g id="edge14" class="edge"><title>I&#45;&gt;J</title>
<path fill="none" stroke="black" d="M360.426,-72.7646C346.879,-62.5685 329.325,-49.356 315.01,-38.5805"/>
<polygon fill="black" stroke="black" points="317.104,-35.7763 307.009,-32.5589 312.894,-41.3691 317.104,-35.7763"/>
</g>
</g>
</svg>
